<svg width="201" height="60" viewBox="0 0 201 60" fill="none" xmlns="http://www.w3.org/2000/svg">
<path d="M197.003 40.3552C197.496 41.0215 197.355 41.9607 196.688 42.4531C196.022 42.9454 195.083 42.8045 194.591 42.1383L195.797 41.2468L197.003 40.3552ZM2.34003 59.461C1.53317 59.6487 0.726844 59.1469 0.539047 58.34C0.351251 57.5332 0.853102 56.7268 1.65996 56.539L2 58L2.34003 59.461ZM177.675 40.9258C176.859 40.7808 176.315 40.002 176.46 39.1863C176.606 38.3707 177.384 37.8271 178.2 37.9722L177.937 39.449L177.675 40.9258ZM196.818 42.8073L198.304 43.0141C198.248 43.4178 198.03 43.7813 197.7 44.0209C197.37 44.2605 196.957 44.3555 196.556 44.2841L196.818 42.8073ZM197.508 25.5026C197.593 24.6785 198.33 24.0793 199.154 24.1642C199.978 24.249 200.577 24.9859 200.492 25.8099L199 25.6563L197.508 25.5026ZM195.797 41.2468C194.591 42.1383 194.591 42.1386 194.591 42.1389C194.591 42.1387 194.591 42.1388 194.591 42.1386C194.59 42.1381 194.59 42.137 194.588 42.1353C194.586 42.132 194.582 42.1263 194.576 42.1184C194.564 42.1025 194.545 42.0774 194.519 42.0435C194.468 41.9757 194.388 41.8725 194.281 41.7361C194.068 41.4634 193.744 41.0584 193.311 40.5398C192.445 39.5026 191.144 38.0117 189.419 36.2171C185.966 32.6267 180.818 27.8273 174.056 23.0131C160.533 13.3848 140.591 3.72134 114.844 3.50276L114.857 2.00282L114.869 0.502869C141.387 0.727986 161.916 10.6864 175.796 20.5692C182.736 25.5106 188.024 30.4389 191.581 34.1375C193.36 35.9874 194.708 37.5312 195.614 38.6176C196.068 39.1608 196.411 39.5898 196.643 39.8857C196.759 40.0336 196.847 40.1483 196.907 40.2273C196.937 40.2669 196.96 40.2975 196.976 40.3189C196.984 40.3296 196.99 40.338 196.995 40.3441C196.997 40.3471 196.999 40.3496 197 40.3514C197.001 40.3524 197.002 40.3533 197.002 40.3538C197.003 40.3546 197.003 40.3552 195.797 41.2468ZM114.857 2.00282L114.844 3.50276C89.1981 3.28505 65.8783 15.988 46.5397 29.4705C36.8637 36.2165 28.3011 43.0698 20.8903 48.5961C17.2041 51.345 13.8026 53.7647 10.733 55.6354C7.68076 57.4954 4.85839 58.8748 2.34003 59.461L2 58L1.65996 56.539C3.71018 56.0619 6.20774 54.8799 9.17176 53.0736C12.1183 51.2779 15.4293 48.9262 19.0969 46.1912C26.3935 40.75 35.1033 33.7867 44.824 27.0095C64.2789 13.4459 88.2504 0.276891 114.869 0.502869L114.857 2.00282ZM177.937 39.449L178.2 37.9722L197.081 41.3305L196.818 42.8073L196.556 44.2841L177.675 40.9258L177.937 39.449ZM196.818 42.8073C195.333 42.6006 195.333 42.6006 195.333 42.6005C195.333 42.6004 195.333 42.6003 195.333 42.6001C195.333 42.5998 195.333 42.5993 195.333 42.5986C195.333 42.5972 195.334 42.5952 195.334 42.5925C195.335 42.587 195.336 42.5788 195.337 42.5679C195.34 42.5461 195.345 42.5137 195.351 42.4711C195.363 42.3859 195.38 42.2601 195.402 42.0979C195.447 41.7735 195.512 41.3036 195.591 40.7219C195.75 39.5584 195.967 37.9482 196.203 36.1612C196.676 32.5812 197.218 28.313 197.508 25.5026L199 25.6563L200.492 25.8099C200.198 28.6681 199.65 32.9754 199.177 36.5538C198.941 38.3461 198.723 39.9607 198.563 41.1273C198.484 41.7107 198.419 42.1821 198.374 42.5078C198.352 42.6706 198.334 42.7971 198.322 42.8829C198.316 42.9258 198.312 42.9585 198.309 42.9805C198.307 42.9915 198.306 42.9999 198.305 43.0055C198.305 43.0083 198.305 43.0104 198.304 43.0119C198.304 43.0126 198.304 43.0131 198.304 43.0135C198.304 43.0137 198.304 43.0138 198.304 43.0139C198.304 43.014 198.304 43.0141 196.818 42.8073Z" fill="#98A2B3"/>
</svg>
